Coordinates
version=1
nRows=22
nColumns=24
inDegrees=yes

Units are S.I. units (second, meters, Newtons, ...)
Angles are in degrees.

endheader
time	pelvis_tilt	pelvis_list	pelvis_rotation	pelvis_tx	pelvis_ty	pelvis_tz	hip_flexion_r	hip_adduction_r	hip_rotation_r	knee_angle_r	ankle_angle_r	subtalar_angle_r	mtp_angle_r	hip_flexion_l	hip_adduction_l	hip_rotation_l	knee_angle_l	ankle_angle_l	subtalar_angle_l	mtp_angle_l	lumbar_extension	lumbar_bending	lumbar_rotation
      0.43000000	     -5.36052698	      5.72144846	     -2.44429187	     -0.80248403	      1.02283932	      0.25343363	     34.23829648	     -2.49335774	     -0.08868779	    -10.83321681	      4.87221775	     -1.65690954	     10.53003324	    -11.68339538	      7.96319311	      0.16300989	     -8.26159597	     20.34607374	     10.77060456	      4.76523423	    -11.44748911	     -6.34476940	     -3.67058620
      0.43416667	     -5.43080949	      5.63143356	     -2.36118207	     -0.79599679	      1.02206105	      0.25364254	     34.35340257	     -2.36967028	      0.08518696	    -11.55072512	      4.49505424	     -2.14555473	     10.51692425	    -11.64993350	      7.81817176	      0.05178919	     -8.98785770	     20.42783966	     11.06879971	      4.83080411	    -11.29588653	     -6.12861423	     -3.60291883
      0.43833333	     -5.46713201	      5.52158202	     -2.26950095	     -0.78951301	      1.02139699	      0.25386581	     34.42098746	     -2.23465084	      0.26115752	    -12.27527781	      4.09073132	     -2.66087326	     10.50240818	    -11.60829808	      7.63732025	     -0.18119777	     -9.80716825	     20.53360186	     11.55175545	      4.95599471	    -11.20768040	     -5.87518506	     -3.61275522
      0.44250000	     -5.50048324	      5.41001507	     -2.17223850	     -0.78301696	      1.02079488	      0.25408977	     34.49085216	     -2.10556018	      0.42054316	    -13.03618950	      3.69388776	     -3.11710128	     10.48401494	    -11.54590062	      7.44743694	     -0.43503142	    -10.67590952	     20.59183236	     12.06180607	      5.15962004	    -11.13392606	     -5.62870149	     -3.59494765
      0.44666667	     -5.55706078	      5.29261980	     -2.08280882	     -0.77645353	      1.02020463	      0.25432491	     34.59648596	     -1.96963070	      0.54999418	    -13.84447164	      3.26979411	     -3.58408537	     10.45992960	    -11.46345044	      7.25328212	     -0.64290197	    -11.53285585	     20.60939293	     12.48044845	      5.35997295	    -10.98928375	     -5.36703570	     -3.58928358
      0.45083333	     -5.57912667	      5.16147076	     -1.98926274	     -0.76990850	      1.01973112	      0.25458722	     34.65687058	     -1.82576551	      0.69109078	    -14.65105665	      2.85848923	     -4.03512635	     10.42449761	    -11.37220033	      7.02835727	     -0.95186362	    -12.48288248	     20.60280094	     13.04377441	      5.64440150	    -10.92273885	     -5.09099005	     -3.57588699
      0.45500000	     -5.62532710	      5.03778470	     -1.89188017	     -0.76334357	      1.01927875	      0.25484676	     34.75849221	     -1.69559472	      0.79357434	    -15.50455244	      2.46366388	     -4.44334747	     10.38159143	    -11.24252108	      6.81038726	     -1.20425328	    -13.45262198	     20.53451849	     13.51068851	      5.94223991	    -10.80510059	     -4.82377947	     -3.56628285
      0.45916667	     -5.63365191	      4.91396492	     -1.79122881	     -0.75679122	      1.01893552	      0.25511002	     34.82935498	     -1.57958085	      0.84098138	    -16.38963059	      2.15234852	     -4.68086846	      9.94735991	    -11.10849512	      6.57589942	     -1.55027838	    -14.50096544	     20.37226505	     14.08501566	      9.13087181	    -10.76289737	     -4.57934743	     -3.47051916
      0.46333333	     -5.63812055	      4.76893000	     -1.69455396	     -0.75020890	      1.01868718	      0.25541415	     34.86767420	     -1.43187289	      0.96410460	    -17.22959756	      1.77557562	     -5.16313513	      9.91634754	    -10.97619131	      6.32088281	     -1.81933016	    -15.55113008	     20.18760513	     14.52745577	      9.24245520	    -10.70330240	     -4.27269711	     -3.54302567
      0.46750000	     -5.63028467	      4.62717583	     -1.59406304	     -0.74362398	      1.01850187	      0.25572061	     34.91278978	     -1.30350356	      0.99348870	    -18.12088801	      1.49274111	     -5.45912580	      9.85790386	    -10.81486233	      6.05084730	     -2.17091284	    -16.68360021	     19.97116223	     15.12909239	      9.49823301	    -10.66859074	     -3.99473607	     -3.50865877
      0.47166667	     -5.62467824	      4.48473826	     -1.49110539	     -0.73705393	      1.01837007	      0.25604841	     34.95227924	     -1.17557272	      1.03270424	    -19.00145221	      1.26523946	     -5.73141221	      9.78015341	    -10.61372269	      5.77141764	     -2.51494094	    -17.88150719	     19.68784615	     15.67407360	      9.82749353	    -10.62977526	     -3.71524743	     -3.49916254
      0.47583333	     -5.61947875	      4.33920441	     -1.40392821	     -0.73046299	      1.01826827	      0.25640295	     35.00042309	     -1.04252414	      1.04468983	    -19.90427285	      1.08295800	     -5.94911154	      9.69920488	    -10.39143761	      5.48292143	     -2.88465809	    -19.11288744	     19.37464318	     16.18974365	     10.16581359	    -10.57873566	     -3.42971407	     -3.48266158
      0.48000000	     -5.59922010	      4.18585739	     -1.30652377	     -0.72387483	      1.01826380	      0.25676315	     35.01799250	     -0.91400462	      1.00916201	    -20.78436470	      0.95034185	     -6.12015274	      9.61473355	    -10.15066008	      5.17247168	     -3.24963196	    -20.40344952	     18.96577670	     16.71630731	     10.52299660	    -10.54776953	     -3.14115490	     -3.46213140
      0.48416667	     -5.55458897	      4.03715491	     -1.21304098	     -0.71732141	      1.01836450	      0.25716756	     34.99496808	     -0.78399851	      0.99930294	    -21.63668642	      0.85441875	     -6.34180680	      8.61983343	     -9.91043417	      4.85988969	     -3.58738173	    -21.71141268	     18.37566869	     17.15098312	     14.74978587	    -10.56047923	     -2.86999932	     -3.39079850
      0.48833333	     -5.49410509	      3.88294626	     -1.12338643	     -0.71076783	      1.01851762	      0.25755485	     34.95739832	     -0.66475833	      0.90240033	    -22.49869645	      0.88965477	     -6.34303235	      8.60884329	     -9.64859905	      4.53151097	     -3.95011002	    -23.09873330	     17.83240943	     17.61987062	     14.82975277	    -10.58819065	     -2.56864177	     -3.40656835
      0.49250000	     -5.44365613	      3.71848590	     -1.03729407	     -0.70423022	      1.01870526	      0.25799310	     34.90443646	     -0.52709410	      0.82508672	    -23.30755722	      0.91757933	     -6.42152560	      8.58266708	     -9.33780838	      4.17481072	     -4.33939029	    -24.54959125	     17.22746248	     18.10749102	     14.96551953	    -10.60255789	     -2.27592156	     -3.37528935
      0.49666667	     -5.36473745	      3.55218144	     -0.95720602	     -0.69772509	      1.01898167	      0.25845341	     34.80392774	     -0.38844224	      0.72854669	    -24.08078745	      1.00014224	     -6.47102472	      8.54763866	     -9.02756493	      3.80659348	     -4.72382795	    -26.03852760	     16.54530234	     18.56026417	     15.14654292	    -10.65507097	     -1.98439657	     -3.34266190
      0.50083333	     -5.29795814	      3.38112023	     -0.87885594	     -0.69124902	      1.01927574	      0.25893948	     34.69694798	     -0.24365256	      0.61862933	    -24.81469979	      1.12449612	     -6.50302349	      8.50351243	     -8.66397533	      3.42014928	     -5.10761375	    -27.59329630	     15.81220123	     18.98469027	     15.37087466	    -10.69272928	     -1.68984099	     -3.30166248
      0.50500000	     -5.20347942	      3.21396778	     -0.80757177	     -0.68482143	      1.01965334	      0.25945150	     34.54055052	     -0.09836319	      0.50928398	    -25.50581381	      1.29166426	     -6.55261308	      7.65686557	     -8.30885990	      3.03239760	     -5.46562468	    -29.15275409	     14.91141587	     19.30566517	     19.20199158	    -10.77594544	     -1.40322605	     -3.23602275
      0.50916667	     -5.12222215	      3.03449208	     -0.73816562	     -0.67841466	      1.02004240	      0.25996289	     34.37297810	      0.05526883	      0.36628674	    -26.14620849	      1.52414124	     -6.50720692	      7.65751848	     -7.90254059	      2.62198897	     -5.82110988	    -30.78125633	     14.04584659	     19.60693900	     19.23465680	    -10.83627315	     -1.09938391	     -3.19658805
      0.51333333	     -5.03039302	      2.85501150	     -0.67288715	     -0.67206268	      1.02047449	      0.26050373	     34.17175909	      0.21326284	      0.22441372	    -26.73645030	      1.77233253	     -6.48613016	      7.65030585	     -7.47545954	      2.19990673	     -6.17123422	    -32.44857959	     13.13539838	     19.87989196	     19.29221261	    -10.91228156	     -0.80656370	     -3.14090451
      0.51750000	     -4.94134584	      2.67257742	     -0.60983645	     -0.66575633	      1.02093413	      0.26105833	     33.94946228	      0.37790758	      0.08027258	    -27.27664326	      2.05215899	     -6.47045827	      7.63572465	     -7.01619295	      1.76812624	     -6.49930208	    -34.14499870	     12.18893912	     20.09502145	     19.36827449	    -10.99437372	     -0.50985460	     -3.07885257
